<svg xmlns="http://www.w3.org/2000/svg" version="1.1" xmlns:xlink="http://www.w3.org/1999/xlink" width="1500" height="591" viewBox="0 0 1500 591"><svg xml:space="preserve" width="1500" height="591" data-version="2" data-id="lg_xxFnsS0d5idPRQ5qUv" viewBox="0 0 806 591" x="0" y="0"><rect width="100%" height="100%" fill="transparent"></rect><path fill="#90f" d="M494.55 292.347q-53.47-25.84-95.82-39.12-91.52 110.54-108.02 214.25-2.52 16.87-2.52 33.92t3.23 34.27q-35.88 26.56-73.93 39.48-13.28 4.67-21.53 4.67-8.25 0-17.05-4.31-8.79-4.31-15.97-13.28-17.22-20.1-17.22-53.47 0-33.38 12.02-67.47 12.02-34.1 33.2-68.91 39.83-65.68 114.84-136.74-29.43-1.79-58.5-1.79t-60.65 7.54q-66.75 15.79-79.67 60.29-2.52 7.89-2.52 20.64 0 12.74 8.62 32.83-7.18 13.28-33.38 10.77-27.27-2.51-42.71-14.71-29.07-22.97-29.07-50.61 0-53.83 75.37-86.49 69.98-30.5 170.47-30.5 44.86 0 98.34 11.48 134.58-111.97 275.98-164.01 68.19-25.12 120.59-25.12 24.4 0 36.42 10.94 12.03 10.95 12.03 27.64t-8.8 41.45q-8.79 24.76-22.07 55.09l-28.53 65.14q-15.25 34.81-28.53 71.05-30.87 84.34-30.87 142.84 0 42.71 37.69 42.71 10.76 0 23.68-5.38 6.82 4.66 11.13 12.38 4.31 7.71 4.31 13.46 0 5.74-4.49 16.5-4.49 10.77-12.74 21.72-8.26 10.94-19.92 20.99-11.66 10.05-25.66 17.95-52.4 29.78-113.41 8.97-50.6-16.87-72.13-69.63-10.77-27.27-10.77-62.08t10.77-65.5q10.76-30.68 28.17-60.29 17.4-29.61 39.84-57.24 22.43-27.64 45.93-52.94 23.51-25.3 45.94-47.55 22.43-22.25 39.66-41.28 39.12-41.98 39.12-57.78 0-8.25-15.08-8.25-65.31 0-148.94 48.81-80.75 47.37-151.45 122.38 57.07 20.46 69.27 36.96 14 18.67-4.67 37.33"></path><rect width="789.2" height="578.09" x="-394.6" y="-289.04" fill="none" rx="0" ry="0" transform="translate(403 295.5)"></rect><path fill="none" d="m164.26 300.127-10.6 29.16h-4.32l12.19-31.99h2.79Zm8.87 29.16-10.61-29.16-.07-2.83h2.79l12.24 31.99Zm-.55-11.85v3.48h-17.97v-3.48Z"></path><rect width="28.14" height="31.99" x="-14.07" y="-15.99" fill="none" rx="0" ry="0" transform="translate(163.91 313.8)"></rect><path fill="none" d="M196.02 295.537v33.75h-4.07v-33.75Zm-.97 20.96-1.69-.07q.02-2.43.72-4.51.71-2.08 1.98-3.62 1.28-1.53 3.04-2.38 1.77-.85 3.93-.85 1.75 0 3.16.48 1.41.47 2.41 1.5 1 1.03 1.52 2.67.53 1.64.53 3.99v15.58h-4.09v-15.62q0-1.87-.55-3-.54-1.14-1.6-1.65-1.05-.52-2.59-.52-1.52 0-2.76.64-1.24.64-2.13 1.76-.89 1.12-1.39 2.56-.49 1.44-.49 3.04"></path><rect width="18.7" height="33.75" x="-9.35" y="-16.88" fill="none" rx="0" ry="0" transform="translate(201.8 312.91)"></rect><path fill="none" d="M231.58 310.237v19.05h-4.09v-23.78h3.87Zm-.83 6.26-1.89-.07q.02-2.43.63-4.51.62-2.08 1.83-3.62 1.21-1.53 3.01-2.38 1.8-.85 4.17-.85 1.67 0 3.08.48 1.4.47 2.44 1.48 1.03 1.01 1.6 2.59.57 1.58.57 3.83v15.84h-4.06v-15.65q0-1.86-.63-2.98-.63-1.13-1.77-1.64-1.14-.52-2.68-.52-1.8 0-3.01.64-1.21.64-1.93 1.76-.73 1.12-1.05 2.56-.31 1.44-.31 3.04m15.4-2.24-2.73.83q.03-1.95.65-3.75.63-1.81 1.83-3.21 1.19-1.41 2.95-2.23 1.76-.83 4.02-.83 1.91 0 3.4.51 1.48.51 2.5 1.55t1.55 2.67q.53 1.62.53 3.87v15.62h-4.09v-15.67q0-2-.63-3.11-.62-1.11-1.75-1.56-1.13-.45-2.69-.45-1.34 0-2.38.46-1.03.46-1.73 1.27-.71.8-1.07 1.83-.36 1.03-.36 2.2"></path><rect width="33.36" height="24.22" x="-16.68" y="-12.11" fill="none" rx="0" ry="0" transform="translate(244.67 317.68)"></rect><path fill="none" d="M287.67 329.727q-2.49 0-4.5-.85-2.01-.84-3.45-2.38-1.44-1.54-2.21-3.65-.76-2.11-.76-4.61v-.93q0-2.9.85-5.17.86-2.28 2.33-3.86 1.47-1.58 3.34-2.39 1.87-.82 3.87-.82 2.55 0 4.4.88 1.86.88 3.05 2.45 1.18 1.57 1.76 3.69.57 2.12.57 4.63v1.82h-17.76v-3.31h13.69v-.31q-.09-1.58-.65-3.08-.56-1.49-1.77-2.46-1.2-.97-3.29-.97-1.39 0-2.55.59-1.16.58-2 1.72-.83 1.14-1.3 2.79-.46 1.65-.46 3.8v.93q0 1.69.48 3.17.47 1.48 1.38 2.6.91 1.13 2.22 1.76 1.31.64 2.98.64 2.15 0 3.64-.88 1.5-.88 2.62-2.35l2.46 1.96q-.77 1.16-1.96 2.21-1.18 1.06-2.91 1.72-1.72.66-4.07.66"></path><rect width="20.17" height="24.66" x="-10.09" y="-12.33" fill="none" rx="0" ry="0" transform="translate(287.33 317.9)"></rect><path fill="none" d="M327.45 324.667v-29.13h4.08v33.75h-3.73Zm-16-7.01v-.46q0-2.72.67-4.95t1.91-3.84q1.25-1.6 2.97-2.47 1.72-.87 3.86-.87 2.24 0 3.92.78 1.68.78 2.85 2.27 1.18 1.48 1.86 3.57.68 2.09.95 4.72v2.02q-.25 2.62-.94 4.71-.69 2.08-1.87 3.56-1.17 1.47-2.86 2.25t-3.96.78q-2.09 0-3.81-.9-1.72-.9-2.97-2.53-1.24-1.63-1.91-3.83-.67-2.21-.67-4.81m4.09-.46v.46q0 1.78.36 3.34.36 1.56 1.13 2.75.77 1.19 1.96 1.86 1.19.67 2.83.67 2.02 0 3.33-.86t2.1-2.26q.79-1.41 1.23-3.06v-5.29q-.26-1.21-.76-2.34-.49-1.13-1.27-2.02-.78-.89-1.91-1.42-1.13-.53-2.67-.53-1.67 0-2.87.69-1.2.7-1.97 1.89-.77 1.2-1.13 2.77-.36 1.57-.36 3.35"></path><rect width="20.08" height="34.19" x="-10.04" y="-17.09" fill="none" rx="0" ry="0" transform="translate(321.99 313.13)"></rect><path fill="none" d="m383.06 300.127-10.59 29.16h-4.33l12.2-31.99h2.79Zm8.88 29.16-10.61-29.16-.07-2.83h2.79l12.24 31.99Zm-.55-11.85v3.48h-17.97v-3.48Z"></path><rect width="28.15" height="31.99" x="-14.07" y="-15.99" fill="none" rx="0" ry="0" transform="translate(382.71 313.8)"></rect><path fill="none" d="M410.74 295.537h4.08v29.13l-.35 4.62h-3.73Zm20.15 21.66v.46q0 2.6-.62 4.81-.61 2.2-1.8 3.83t-2.9 2.53q-1.72.9-3.93.9-2.27 0-3.97-.78-1.7-.78-2.87-2.25-1.16-1.48-1.86-3.56-.69-2.09-.95-4.71v-2.02q.26-2.63.95-4.72.7-2.09 1.86-3.57 1.17-1.49 2.86-2.27t3.93-.78q2.24 0 3.98.87 1.73.87 2.91 2.47 1.18 1.61 1.79 3.84.62 2.23.62 4.95m-4.09.46v-.46q0-1.78-.33-3.35t-1.06-2.77q-.72-1.19-1.91-1.89-1.18-.69-2.92-.69-1.54 0-2.67.53t-1.92 1.42q-.79.89-1.29 2.02-.49 1.13-.73 2.34v5.29q.35 1.54 1.15 2.96.8 1.42 2.15 2.32 1.35.9 3.35.9 1.65 0 2.83-.67 1.17-.67 1.91-1.86t1.09-2.75q.35-1.56.35-3.34"></path><rect width="20.15" height="34.19" x="-10.07" y="-17.09" fill="none" rx="0" ry="0" transform="translate(421.31 313.13)"></rect><path fill="none" d="M461.81 324.667v-29.13h4.09v33.75h-3.74Zm-15.99-7.01v-.46q0-2.72.67-4.95t1.91-3.84q1.24-1.6 2.96-2.47 1.73-.87 3.86-.87 2.24 0 3.92.78 1.68.78 2.86 2.27 1.17 1.48 1.86 3.57.68 2.09.94 4.72v2.02q-.24 2.62-.93 4.71-.7 2.08-1.87 3.56-1.18 1.47-2.87 2.25-1.69.78-3.95.78-2.09 0-3.82-.9-1.72-.9-2.96-2.53t-1.91-3.83q-.67-2.21-.67-4.81m4.08-.46v.46q0 1.78.37 3.34.36 1.56 1.13 2.75.77 1.19 1.95 1.86 1.19.67 2.84.67 2.02 0 3.33-.86 1.3-.86 2.09-2.26.8-1.41 1.24-3.06v-5.29q-.27-1.21-.76-2.34-.5-1.13-1.28-2.02-.78-.89-1.91-1.42-1.13-.53-2.67-.53-1.67 0-2.87.69-1.19.7-1.96 1.89-.77 1.2-1.13 2.77-.37 1.57-.37 3.35"></path><rect width="20.08" height="34.19" x="-10.04" y="-17.09" fill="none" rx="0" ry="0" transform="translate(456.36 313.13)"></rect><path fill="none" d="M492.87 329.727q-2.48 0-4.49-.85-2.01-.84-3.45-2.38-1.44-1.54-2.21-3.65t-.77-4.61v-.93q0-2.9.86-5.17.85-2.28 2.33-3.86 1.47-1.58 3.34-2.39 1.86-.82 3.86-.82 2.55 0 4.41.88 1.86.88 3.04 2.45 1.19 1.57 1.76 3.69.57 2.12.57 4.63v1.82h-17.75v-3.31h13.69v-.31q-.09-1.58-.65-3.08-.56-1.49-1.77-2.46t-3.3-.97q-1.38 0-2.54.59-1.17.58-2 1.72-.84 1.14-1.3 2.79-.46 1.65-.46 3.8v.93q0 1.69.47 3.17t1.38 2.6q.92 1.13 2.22 1.76 1.31.64 2.98.64 2.15 0 3.65-.88 1.49-.88 2.61-2.35l2.46 1.96q-.76 1.16-1.95 2.21-1.19 1.06-2.91 1.72-1.73.66-4.08.66"></path><rect width="20.17" height="24.66" x="-10.09" y="-12.33" fill="none" rx="0" ry="0" transform="translate(492.54 317.9)"></rect><path fill="none" d="M522.08 295.537v33.75H518v-33.75Z"></path><rect width="4.08" height="33.75" x="-2.04" y="-16.88" fill="none" rx="0" ry="0" transform="translate(520.54 312.91)"></rect><path fill="none" d="M553.43 325.217v-12.24q0-1.4-.56-2.45-.56-1.04-1.68-1.61-1.12-.57-2.77-.57-1.54 0-2.69.53-1.16.52-1.8 1.38-.65.86-.65 1.85h-4.07q0-1.28.66-2.53.66-1.25 1.9-2.28 1.24-1.02 2.99-1.62 1.75-.61 3.9-.61 2.59 0 4.58.88 1.99.88 3.12 2.65 1.13 1.77 1.13 4.43v11.07q0 1.19.21 2.53.21 1.34.63 2.31v.35h-4.24q-.31-.7-.49-1.88-.17-1.18-.17-2.19m.7-10.35.05 2.86h-4.11q-1.74 0-3.1.28-1.36.27-2.29.82-.92.55-1.4 1.37-.49.83-.49 1.93 0 1.12.51 2.04.5.92 1.53 1.46 1.02.54 2.51.54 1.87 0 3.3-.79 1.43-.79 2.27-1.94.85-1.14.91-2.22l1.74 1.96q-.15.92-.83 2.04-.69 1.12-1.82 2.15-1.13 1.02-2.68 1.69-1.55.67-3.48.67-2.42 0-4.23-.95-1.81-.94-2.81-2.53-1-1.6-1-3.58 0-1.91.74-3.37.75-1.46 2.16-2.44 1.4-.98 3.38-1.48 1.98-.51 4.42-.51Z"></path><rect width="19.62" height="24.66" x="-9.81" y="-12.33" fill="none" rx="0" ry="0" transform="translate(549.02 317.9)"></rect><path fill="none" d="M592.4 325.947v3.34h-17.29v-3.34Zm-.64-17.56-15.73 20.9h-2.48v-2.99l15.62-20.79h2.59Zm-1.8-2.88v3.37h-16.24v-3.37Z"></path><rect width="18.85" height="23.78" x="-9.43" y="-11.89" fill="none" rx="0" ry="0" transform="translate(583.48 317.9)"></rect><path fill="none" d="M612.23 305.507v23.78h-4.09v-23.78Zm-4.4-6.3q0-.99.61-1.67.6-.68 1.79-.68 1.16 0 1.79.68.63.68.63 1.67 0 .94-.63 1.61-.63.67-1.79.67-1.19 0-1.79-.67-.61-.67-.61-1.61"></path><rect width="4.82" height="32.43" x="-2.41" y="-16.21" fill="none" rx="0" ry="0" transform="translate(610.74 313.57)"></rect><path fill="none" d="M647.26 325.947v3.34h-17.29v-3.34Zm-.63-17.56-15.74 20.9h-2.48v-2.99l15.62-20.79h2.6Zm-1.8-2.88v3.37h-16.24v-3.37Z"></path><rect width="18.85" height="23.78" x="-9.43" y="-11.89" fill="none" rx="0" ry="0" transform="translate(638.34 317.9)"></rect></svg></svg>